<svg width="29" height="33" viewBox="0 0 29 33" fill="none" xmlns="http://www.w3.org/2000/svg">
<path fill-rule="evenodd" clip-rule="evenodd" d="M22.3209 10C24.53 10 26.3209 8.20914 26.3209 6C26.3209 3.79086 24.53 2 22.3209 2C20.1117 2 18.3209 3.79086 18.3209 6C18.3209 8.20914 20.1117 10 22.3209 10ZM22.3209 12C25.6346 12 28.3209 9.31371 28.3209 6C28.3209 2.68629 25.6346 0 22.3209 0C19.0072 0 16.3209 2.68629 16.3209 6C16.3209 7.0713 16.6016 8.07702 17.0936 8.94759L8.61972 15.9844C7.80328 15.1536 6.6668 14.6383 5.40997 14.6383C2.92469 14.6383 0.909973 16.6531 0.909973 19.1383C0.909973 21.6236 2.92469 23.6383 5.40997 23.6383C6.689 23.6383 7.84339 23.1047 8.66268 22.248L14.3061 25.7588C14.1786 26.2001 14.1103 26.6665 14.1103 27.1489C14.1103 29.9103 16.3489 32.1489 19.1103 32.1489C21.8717 32.1489 24.1103 29.9103 24.1103 27.1489C24.1103 24.3875 21.8717 22.1489 19.1103 22.1489C17.5461 22.1489 16.1496 22.8672 15.2328 23.9919L9.68685 20.5417C9.83165 20.1001 9.90997 19.6283 9.90997 19.1383C9.90997 18.6327 9.82657 18.1465 9.67277 17.6928L18.3436 10.4925C19.4024 11.4305 20.7951 12 22.3209 12ZM5.40997 21.6383C6.79069 21.6383 7.90997 20.519 7.90997 19.1383C7.90997 17.7576 6.79069 16.6383 5.40997 16.6383C4.02926 16.6383 2.90997 17.7576 2.90997 19.1383C2.90997 20.519 4.02926 21.6383 5.40997 21.6383ZM22.1103 27.1489C22.1103 28.8057 20.7671 30.1489 19.1103 30.1489C17.4534 30.1489 16.1103 28.8057 16.1103 27.1489C16.1103 25.492 17.4534 24.1489 19.1103 24.1489C20.7671 24.1489 22.1103 25.492 22.1103 27.1489Z" fill="url(#paint0_linear)"/>
<defs>
<linearGradient id="paint0_linear" x1="8.81948" y1="12.4651" x2="30.5497" y2="32.2426" gradientUnits="userSpaceOnUse">
<stop stop-color="#A8810C"/>
<stop offset="1" stop-color="#FFDB6E"/>
</linearGradient>
</defs>
</svg>
