<svg width="38" height="39" viewBox="0 0 38 39" fill="none" xmlns="http://www.w3.org/2000/svg">
<path d="M19.8061 2.07862L22.649 11.9355C23.0811 13.4338 24.4524 14.4656 26.0119 14.4656H35.6738C36.1436 14.4656 36.354 15.0549 35.9904 15.3525L27.7797 22.073C26.6965 22.9597 26.2457 24.4064 26.6336 25.7514L29.6709 36.2824C29.8069 36.7538 29.2534 37.1186 28.8738 36.8079L21.5426 30.8072C20.2531 29.7518 18.3983 29.7518 17.1089 30.8072L9.77762 36.8079C9.39802 37.1186 8.84457 36.7538 8.98051 36.2824L12.0178 25.7514C12.4057 24.4064 11.9549 22.9597 10.8717 22.073L2.661 15.3525C2.29742 15.0549 2.50785 14.4656 2.9777 14.4656H12.6395C14.199 14.4656 15.5703 13.4338 16.0025 11.9355L18.8453 2.07862C18.8893 1.92597 18.9597 1.85065 19.0233 1.80595C19.0977 1.75365 19.2034 1.71718 19.3257 1.71718C19.4481 1.71718 19.5537 1.75365 19.6281 1.80595C19.6918 1.85065 19.7621 1.92598 19.8061 2.07862Z" stroke="url(#paint0_linear)" stroke-width="3"/>
<defs>
<linearGradient id="paint0_linear" x1="-3.75293" y1="-5" x2="47.8799" y2="40.8314" gradientUnits="userSpaceOnUse">
<stop stop-color="#A8810C"/>
<stop offset="1" stop-color="#FFDB6E"/>
</linearGradient>
</defs>
</svg>
